<svg fill="none" height="40" viewBox="0 0 40 40" width="40" xmlns="http://www.w3.org/2000/svg"><g clip-rule="evenodd" fill="#0045ff" fill-rule="evenodd"><path d="m37.9894 10.0224h-34.57869c-1.10457 0-2 .8954-2 2v6.1178c0 .6152.41848 1.1516 1.01522 1.3012v18.0743h36.54827v-18.0743c.5967-.1496 1.0152-.686 1.0152-1.3012v-6.1178c0-1.1046-.8954-2-2-2zm-14.2437 11.201h-6.0913v6.1096h6.0913z" opacity=".05"/><path d="m15.4315 3.92442c-.7289 0-1.3198.59218-1.3198 1.32267v1.01744c0 .39335-.3182.71221-.7107.71221s-.7106-.31886-.7106-.71221v-1.01744c0-1.51717 1.2272-2.74709 2.7411-2.74709h9.137c1.5139 0 2.7411 1.22992 2.7411 2.74709v1.52617c0 .39334-.3181.7122-.7106.7122s-.7107-.31886-.7107-.7122v-1.52617c0-.73049-.5909-1.32267-1.3198-1.32267zm-15.4315 7.42728c0-1.51713 1.22724-2.74705 2.74112-2.74705h34.51778c1.5139 0 2.7411 1.22992 2.7411 2.74705v5.5105c0 1.2748-.8751 2.3821-2.1133 2.674l-14.1304 3.3321v3.2364c0 .6743-.5454 1.2209-1.2182 1.2209h-5.0762c-.6728 0-1.2182-.5466-1.2182-1.2209v-3.2364l-14.13041-3.3321c-1.238203-.2919-2.11329-1.3992-2.11329-2.674zm16.2437 10.0533v-.3876c0-.6743.5454-1.2209 1.2182-1.2209h5.0762c.6728 0 1.2182.5466 1.2182 1.2209v.3876l13.8049-3.2553c.5961-.1406 1.0175-.6737 1.0175-1.2875v-5.5105c0-.7304-.5909-1.3226-1.3198-1.3226h-34.51778c-.72891 0-1.3198.5922-1.3198 1.3226v5.5105c0 .6138.42134 1.1469 1.01751 1.2875zm1.4213-.1841v4.6803h4.67v-4.6803zm-15.93911.6105c.39248 0 .71066.3189.71066.7122v12.2093c0 .7305.59089 1.3227 1.3198 1.3227h32.48735c.7289 0 1.3198-.5922 1.3198-1.3227v-12.2093c0-.3933.3181-.7122.7106-.7122s.7107.3189.7107.7122v12.2093c0 1.5172-1.2273 2.7471-2.7411 2.7471h-32.48735c-1.51388 0-2.74112-1.2299-2.74112-2.7471v-12.2093c0-.3933.31817-.7122.71066-.7122z"/></g></svg>